<svg id="Layer_1" data-name="Layer 1" xmlns="http://www.w3.org/2000/svg" viewBox="0 0 514.34 494.31"><defs><style>.cls-1{fill:#d1d3d4;}</style></defs><title>cornwall</title><path class="cls-1" d="M153.93,484.3,150.85,479l.48-1.87c-.89-.6-1.82-1.25-2.77-1.86-2.78-1.79-3-3.48-.8-5.79.95-1,1.8-1.85,1.42-3.46-.15-.65.53-1.49.92-2.48a19.34,19.34,0,0,1-1.45-2.65c-.39-1-.45-2.19-.79-3.24a14.26,14.26,0,0,0-1.36-3.3,36,36,0,0,0-2.83-3.47c0-.81,0-1.88,0-2.94.11-3.77-2.23-6.28-4.52-8.82-1.78-2-3.47-4-5.35-5.93a37.91,37.91,0,0,0-3.73-2.87,11.94,11.94,0,0,1-2.44-2.07,6.64,6.64,0,0,0-7.89-2.66c-2.73.82-4.94.62-6.87-1.78a37.83,37.83,0,0,0-4.25-3.84c-1.57-1.43-3.15-2.58-4.82-1.06-1.7-.42-3.09-1.11-4.41-1s-2.56,1.09-4,1.75c-1.34-3-4.31-4.06-6.49-6a20.1,20.1,0,0,1-3.5-3.76c-.81-1.24-2-1.38-3.11-1.79a20.74,20.74,0,0,1-5-2.06,8.77,8.77,0,0,0-6.13-1.5c-2.15.2-4.31.35-6.46.48-3.42.2-4.2,1-4.91,4.35a5.81,5.81,0,0,1-1.65,2.55,8.2,8.2,0,0,1-2.14,1.26c-3.5,1.84-3.81,3.62-1.15,6.62s3.09,5.51,1.19,9.32c-1.45,2.89-2.9,5.78-4.36,8.7-.8-.08-1.37-.09-1.93-.2a1.83,1.83,0,0,0-2.31,1.36c-.88,2.6-2.85,3.47-5.42,3.55-3.91.12-7.81.38-11.71.47a4.75,4.75,0,0,0-3.45,1.71c-.79.82-1.69,1.54-2.55,2.32L22,445.79c-2.59,2.6-6.14,2.78-9.56,3.48a2.49,2.49,0,0,1-3.26-1.81c-.72-1.86-1.54-3.69-2.31-5.53a2.93,2.93,0,0,0-2.57-2C2.46,439.69.12,436.86,0,435c0-.25-.07-.63.05-.72,1.8-1.33,2.06-4.06,4.51-4.82,2.71-.84,4.94-5,3.7-7.43-1.87-3.68-2.28-7.57-2.74-11.54A50,50,0,0,0,4,404.25c.3-.88.57-1.92,1-2.88a3.22,3.22,0,0,1,1.24-1.64A2.44,2.44,0,0,0,8,397a4.74,4.74,0,0,1,1.67-4c1.87-1.89,3.53-4,5.42-5.86a5.89,5.89,0,0,1,2.58-1.06c.61-.16,1.51.2,1.91-.12,2.39-2,5.19-1.48,7.9-1.47a3.29,3.29,0,0,0,3.18-1.5c1.58-2.53,2.91-5.4,6.47-5.11.61-4.43,1.28-4.86,4.92-3.71,2-1.64,3.82-3.34,5.86-4.69a29.61,29.61,0,0,1,4.66-2c.38-.17.92-.34,1-.64,1.05-2.49,3.25-3.32,5.57-4,1-.29,2-.58,3-.82.8-.19,1.62-.27,2.42-.44.4-.08.88-.48,1.15-.36,2.23,1,4-.39,5.92-1a4.27,4.27,0,0,1,2.32.16c1.31.39,2.57,1,4.07,1.52.11.39.09,1.39.58,1.87a10.12,10.12,0,0,1,3.33,5.67,2,2,0,0,0,1.4,1.2,7.68,7.68,0,0,1,5,2.41,1.71,1.71,0,0,0,.66.34c3.13,1.3,3.13,1.3,2.7,4.44-.3,2.22-.21,2.35,2.33,2.86,1.07-1.42,2.25-2.81,3.21-4.34a2.47,2.47,0,0,0,0-2,14.74,14.74,0,0,0-1.85-2.49,66.27,66.27,0,0,1,5.75-5.07c3.65-2.56,5.62-6.3,7.6-10.05a6.63,6.63,0,0,0,.22-2.89c0-1-.11-2-.16-2.88l3.66-1.37s.26,0,.34.14c1.79,2.48,3.86,2.93,6.61,1.39a6.62,6.62,0,0,1,3.88-.53c5.58.76,9-2.73,12.37-6.18a10.26,10.26,0,0,0,1.5-2,6,6,0,0,1,5-3.21,2.75,2.75,0,0,0,2.94-2.4c.47-2,2.29-3.06,4.31-3.2a5,5,0,0,0,3.43-1.66,13.55,13.55,0,0,1,3.7-2.45A7.07,7.07,0,0,0,160,326c2.33-4.55,3.78-9.24,2.75-14.28,2.7-2.26,5.66-1.4,8.35-1.11a3.89,3.89,0,0,0,4.42-2.16c1.12-1.9,2.11-4,4.56-4.73a1.49,1.49,0,0,0,.8-1.15c0-1.87,1.31-2.33,2.65-2.84s2.94-1.2,4.45-1.65a3.16,3.16,0,0,0,2.41-2.85c.53-3.62.85-7.29,1.67-10.85.57-2.49-.89-4.41-1.06-6.65,0-.48-.14-1-.22-1.52l2.88-1.47-.29-5c1.23-.61,2.38-1.72,3.27-1.54,3.82.78,7.38-2.32,11.23-.53a26.42,26.42,0,0,0,4.1,1.07c1.58.44,2.13-.32,2.26-2.15l-6.72-2,2.22-5.65c.23-.09.42-.24.53-.2a6,6,0,0,0,7.62-2.23,6.35,6.35,0,0,1,2.19-1.63c2.15-1.1,3.35-3,4.5-5,.85-1.42,1.28-3.07,2-4.57a16,16,0,0,0,1.46-7.76,15.34,15.34,0,0,1,.66-3.41l4.74-.36-3.28-6c2.61-4.78,2.61-4.85-.79-8.47,1.15-2.34,2.58-4.2,5.65-3.86a6.63,6.63,0,0,0,2.11-.53,6,6,0,0,0-.44-.94c-.87-1.1-2.59-1.7-1.83-3.69.49-1.28.48-2.78,1.08-4,1.75-3.54.45-9-2.82-11a7.55,7.55,0,0,0-1.19-.44c1.79-1.19,2.66-.58,3.37.26a4.33,4.33,0,0,0,4.85,1.67c.5-.14,1.35.41,1.81.87a8.56,8.56,0,0,1,1.16,1.86l5.33-1.25.43.66c1.21-2.15,2.55-4.23,3.58-6.46,1.24-2.68,3.7-3.24,6.33-4.45l-.46,4c1,.28,2,.49,2.88.79,2,.68,2.65,2.16,2.26,4.24a12.44,12.44,0,0,0,.19,4.12c.26,1.64.88,3.23-.67,4.63a1.57,1.57,0,0,0-.11,1.55,2.68,2.68,0,0,0,1.84.94,3.64,3.64,0,0,0,3.34-2.2c.88-1.93,1.62-2,3.15-.59,1.93,1.81,3.77,3.7,6,5.94a16.61,16.61,0,0,0,.69-3c0-1.67.91-2.24,2.44-2.57,3.31-.72,6.44.29,9.61.83.78.13,1.44,1.06,2.12,1.66s1.45,1.32,2.27,2.07l2-1.46c-1.48-3.11-2.4-6.43-6.07-7.59-.61-.2-1.44-.51-1.91-.26-2.4,1.23-4.74.3-7.09,0-1.4-.18-2.58-.26-3.59,1a2,2,0,0,1-3.09.13c-1.24-1.08-3.14-1.76-2.33-4.14.37-1.09-.69-1.58-1.66-1.75-2-.34-2.24-1.43-1.92-3.26.41-2.35.74-4.81-1-7,.7-1.49,1.27-2.84,3.13-3.3,1.5-.36,2-2.4,1-3.68a17.67,17.67,0,0,0-2.16-2.07c-.66-.6-1.35-1.18-2.2-1.92,1.2-.84,2.11-1.48,3.21-.34,3.5,3.62,8.17,3.16,12,3.69l5.92-5.18.1.33c1.55-.58,3.07-1.25,4.65-1.71a3.83,3.83,0,0,1,2.3,0,17.22,17.22,0,0,1,2.75,1.66l.07-.54a43.25,43.25,0,0,0,4.71-.31c3-.51,6-1.12,9-1.88.66-.17,1.18-1.12,1.65-1.79,1.59-2.24,3-4.62,4.72-6.75a16.47,16.47,0,0,0,3.42-9.45c.18-2.35.6-4.51,2.43-6.33,1.53-1.52,1.41-3.62.35-5.52a3.06,3.06,0,0,1-.38-1.79c.23-1.57.63-3.12,1.05-5.12a12.34,12.34,0,0,1,2.14-.13c1.13.09,2.3.69,3.19-.58a.73.73,0,0,1,.68-.08c2.4,1.15,3.55-.4,4.13-2.22,1-3,3.1-4.09,6-4.16a3.12,3.12,0,0,0,2.68-1.67c1.12-1.53,2.49-3.29,5-2.95a11.42,11.42,0,0,0,3.26-.48c0-.5.12-.69.06-.82-1.34-3-1.27-3.15,1.85-4.19,1.51-.51,3-.85,3.28-2.91.07-.57.92-1.14,1.53-1.52,3.12-2,3.69-5.14,3.86-8.43a27.34,27.34,0,0,0-.2-3.44l5.91-2.22-.51-2.68a13.26,13.26,0,0,1,1.72-1,8.32,8.32,0,0,0,5-4.6,4.6,4.6,0,0,1,2.09-2,71.66,71.66,0,0,1,7.27-3.32,16.43,16.43,0,0,0,8.33-6.52c1.79-2.9,3.64-6.26,1.74-10a2.14,2.14,0,0,1-.12-1.66c1.61-3.14,1.15-6.51,1.18-9.82,0-1.51-.12-2.9,1.74-3.68,1-.44.94-1.71.13-2.57-1.14-1.22-1.1-2.58-1.06-4.16.17-6.56.81-13.16-.67-19.66-.27-1.19-.73-2.34-1.18-3.77,1.13-1,1-2.49.51-4.08a8.11,8.11,0,0,1-.69-3.4,44.56,44.56,0,0,1,2.11-8.91c.65-1.68,2.45-2.89,3.66-4.37S403.06.32,405,.3c4.9-.05,9.8-.15,14.7-.23.83,0,1.67-.06,2.5-.06,4.36,0,7.09,2.27,7.71,6.58s.85,8.45,1.66,12.61a20,20,0,0,0,2.79,7.66c3.66,5.15,3.32,10.7,1.69,16-1.42,4.63-2.43,9.17-2,14,.22,2.73-1.06,4.38-3.17,5.73-2.94,1.88-5.88,3.77-8.75,5.75a7.17,7.17,0,0,0-2,2.18c-2.15,3.6-1.31,6.07,2.76,6.79a15.43,15.43,0,0,1,9,5.28c2.18,2.37,5.13,3.58,8.16,4.64,2.63.92,5.21-1.41,5.49-3.65.15-1.24.4-2.47.55-3.7s1-1.82,2.25-1.71c3,.25,4.34,1.48,4.64,4.51.1,1,0,2,.06,3,.34,9.14.64,18.29,1.08,27.42a15.61,15.61,0,0,0,2.24,8.09,5,5,0,0,1,.67,1.34c1.17,4.09,3.95,6.64,7.79,8.18a2.48,2.48,0,0,1,1.71,2.74c-.36,4-.54,8.13-1.17,12.13-.36,2.28-.15,4.08,1.58,5.66,2.09,1.9,4,4.05,6.25,5.72,3.16,2.34,3,5.48,2.77,8.77-.34,5.14-.76,10.28-.87,15.43-.1,4.62,2.18,7.08,6.71,7.81,3.21.52,3.46.75,3.7,4.07.23,3.15.41,6.3.55,9.46.26,5.9,2.59,8.43,8.45,9.09a80.84,80.84,0,0,0,8.67.91c6.1,0,8.62,4.3,9.29,10,.27,2.27-.28,4.63-.48,6.95-.12,1.38-1.23,1.72-2.3,1.91-2.46.42-4.94.68-7.4,1.11-5.57,1-6,1.64-4.63,7.11a63.74,63.74,0,0,1,1.51,7.08c.54,4.39,3.66,6.92,6.53,9.69a37.88,37.88,0,0,1,4,4.38c1.62,2.16.56,4.24-1.69,4.46-1,.1-1.93.54-2.91.71-3.25.54-4.76,2.89-5.71,5.66a3.46,3.46,0,0,0,.46,2.56,31.28,31.28,0,0,0,3.15,4.17c1.5,1.71,2.86,3.39,3.15,5.81.09.78,1,1.6,1.74,2.16,1.51,1.15,3.22,2.06,4.72,3.23a12.55,12.55,0,0,1,1.83,2.63c-2.32.66-4.16,1.3-6.06,1.68-3.06.63-6.38-.29-9.25,1.51-3.33-.87-5.62,1.55-8.34,2.64a1.84,1.84,0,0,0-.59.44,3.52,3.52,0,0,0-.34.76c1.38.32,2.68.72,4,.93a4,4,0,0,1,3.33,2.27c1.12,2.41,3.3,3.71,5.48,4.93a3.06,3.06,0,0,0,2.3,0c1.46-.57,2.82-1.39,4.62-2.31l2.51,3.7a7.31,7.31,0,0,1-1.82.88c-2.64.31-4.53,1.94-6.49,3.49a2.57,2.57,0,0,0-.82,3.51c.67,1.41,1.21,2.88,2,4.77-3.38,0-6.4.35-8.56,3l-.54-.5a7,7,0,0,1,.81-1.61c1.59-1.81,1.86-3.12.5-5.1a20.9,20.9,0,0,0-3.74-4.3c-4-3.29-8-6.55-12.2-9.53a23,23,0,0,0-6.72-3.09c-4-1.16-7.77-3.17-12.1-2.67-1.06.12-2.11.35-3.17.48a4.51,4.51,0,0,1-1.93.06,13.87,13.87,0,0,0-6.87-.53c-2.13.33-4-.47-6.06-.92a37,37,0,0,0-7.9-.47c-2.32,0-4.65.45-7,.33a7.61,7.61,0,0,0-6.42,2.67c-.5.55-1.09,1-1.8,1.66L417.1,299l2.16,5c-1.89,2.77-6.15,2.47-7.13,6.34l-7.05-2.12a8.53,8.53,0,0,1-1,1.82c-.53.56-1.26,1.35-1.88,1.33-3-.09-5.47,1.35-8.09,2.36a9.49,9.49,0,0,1-8.41-.38c-1.31-.73-2.6-1.49-3.93-2.19-3.7-2-5.75-1.71-8.76,1-.24.22-.53.39-1,.69-1.73-1.64-3.47-1.14-5.34,0a5.94,5.94,0,0,1-5.34.22l-.17-.63a12.45,12.45,0,0,0,2.52-1.27,2.91,2.91,0,0,0,1.07-1.92c0-.4-.93-1-1.54-1.17a4.27,4.27,0,0,0-4.37,1,38.77,38.77,0,0,1-4.32,3.36,4.36,4.36,0,0,1-2.46,1c-2.81-.27-4.46.86-4.95,3.71-2-.5-2.83-1.64-2.67-3.47.14-1.66.38-3.3.48-5,.21-3.52-2.32-5.55-4.46-7.7-.87-.87-3.86.07-4.3,1.41-.83,2.52-2.88,3-4.9,3a12.47,12.47,0,0,0-6.41,1.67,3.77,3.77,0,0,1-3.56.34c-1.24-.56-2,0-2.69,1a18.72,18.72,0,0,1-2.1,3.1c-2.05,2.22-2.08,4.71-1.4,7.43a4.56,4.56,0,0,0,2.27,3.37,4.34,4.34,0,0,1,1.5,2.06c-4.91.18-6.54,4.42-9.44,6.92-1.61,1.38-1.43,2.8.08,5.55-2.17,1.87-1.42,4.48-1.66,6.92-.36,3.64,3.75,2.75,5,5.2l-6.64,5.58,1.44,3c-2.49,1.63-5.57,2.87-5.28,6.82h-.67a8.34,8.34,0,0,1-1.31-1.66c-1.36-3.09-2.11-3.47-5.43-3.4a5.21,5.21,0,0,1-3.1-1.25c-3-2.46-6.46-1.94-9.53-1.14-1.9.49-3.34,2.85-4.91,4.45-1.17,1.18-2.19,2.5-3.33,3.72-1.3,1.4-2.48,3.1-4.89,1.95a13.78,13.78,0,0,0-.77,2.14,2.76,2.76,0,0,1-1.76,2.47c-.55.22-.89,1.06-1.24,1.66s-.58,1.26-1.07,2.35c-1.08-1.19-1.91-2-2.57-2.87a3.87,3.87,0,0,0-3.62-1.77A22.82,22.82,0,0,0,255,371a7.57,7.57,0,0,0-3.07,1.31,26.62,26.62,0,0,0-3.71,3.7,5.92,5.92,0,0,0-1.51,2.78c-.23,1.85-1,3.09-2.62,3.55.12,2.65.31,5.12.31,7.59,0,2.3-.77,4.25-3.46,5.16l-4-5.73c-1,1.51-1.8,2.72-2.58,3.94-1.51,2.37-1.91,2.52-5.37,1.64.66-3,.69-6.12,2-9,.45-1,1-1.93,1.42-2.92.69-1.62.62-1.76-1.21-2.88l-2.44,1.41-1.51-7.95c2.57-1.56,3.15-3.91,3.21-6.49.07-2.87.06-2.87,2.84-3.8l5.71-1.89a12.27,12.27,0,0,0-2.18-1.65c-2.66-1.1-3.29-3-2.59-5.64a3.23,3.23,0,0,0-.45-2.51,1.92,1.92,0,0,0-3.47.8c-.67,2.32-2.38,4.48-.72,7.24l-.77.36-4.12-1.62c-2.2,2.2-1.35,5.22,1.85,6.6.36,2.43-1.15,3.76-6.22,5.36.88,2.2-.41,3.85-1.36,5.71a53.28,53.28,0,0,0-2.3,6.28c-.49,0-1.2-.09-1.91-.18s-1.46-.24-2.39-.39l-.73,2.3,8.54,4.1c-.67,4.33-3.28,5.47-6.52,3.12-2.74-2-3.85-2.33-7.85-2.39-1.12,1.87-1.15,2.54.58,3,3.59,1,5.4,3.61,7.17,6.47,1.19,1.93,3.22,1.79,4.44-.18.12-.2.27-.38.4-.57.17.12.38.18.4.29.13.55.22,1.12.36,1.91-2.57,1.08-5.07,2.17-7.61,3.18-1.26.5-2.25,1.11-2.15,2.66s-.78,2.44-1.92,3.27c-4.39,3.18-4.92,6.68-1.67,10.86a1.45,1.45,0,0,1,.15.47c-2.13,2.9-2.93,3.21-6,2.16-1.77-.61-3.38-1.22-5,.51-.57.6-1.94.42-3.34.66l-.31-7c-1.88,2-4.32,3.18-4.65,6.28-.2,1.88-2.37,1.51-4.13,1.57a28.35,28.35,0,0,0,.4-3.81c0-.61-.45-1.6-.88-1.73a2.66,2.66,0,0,0-2.1.54c-2.44,2.07-2.27,4.39-.21,6.64a9.13,9.13,0,0,1-12.23-1.26c-.2.09-.52.13-.62.3-.61,1-1.89,2.47-1.59,3a6,6,0,0,0,3.33,2.64,4.69,4.69,0,0,1,3.63,2.64c2.56-3.42,6.41-2.43,9.66-3.37,1.65-.48,3.25-1.15,4.92-1.56a11.21,11.21,0,0,1,2.87-.11c1.14,0,2.38.46,3.39.13,2.84-.94,5.2.15,7.85,1.26-.3.54-.55.92-.72,1.33-.63,1.48-.3,2.14,1.32,2.41,2,.32,3.92.52,6.3.83l-.81,7c1.83,1.06,4.12,1.66,5,3.12s.45,3.77.6,5.84c-2.21,1-2.42,2.87-2.35,5,.09,2.57,0,2.63-2.6,3.5-1.26.43-2.51.9-3.8,1.24-1.54.4-2.08,1.27-2.08,2.89,0,3.2-1.39,6.06-2.8,8.83a2.22,2.22,0,0,1-3.63.42c-1.43-1.3-2.86-2-4.72-1.06a1,1,0,0,1-.72.1c-2.34-1.27-4.75-.12-7.11-.19-3.65-.12-5.63,1.5-6.61,5.09a11.72,11.72,0,0,1-3.48,6.23,6.55,6.55,0,0,0-2.41,6c.18,1.94.06,3.68-2.56,4-.63.06-1.19.84-1.77,1.3-1.55,1.24-2.58,1-3.12-.88a10.74,10.74,0,0,0-4.7-6.2C156.94,485.68,155.52,485.09,153.93,484.3Z"/><path class="cls-1" d="M235.45,401.51a23.55,23.55,0,0,1,1.17-4,3.67,3.67,0,0,1,2-1.37c.25-.09,1,.52,1.15.94.35,1-.3,1.54-1.23,2a23.84,23.84,0,0,0-3.12,2.36Z"/><path class="cls-1" d="M235.43,401.48c-.43.51-.83,1-1.28,1.52-.62.65-1.5,1.19-2.09.29a3.07,3.07,0,0,1-.22-2.5c.43-1,1.32-.58,2.07-.06a11.51,11.51,0,0,0,1.54.77Z"/></svg>